<svg width="48" height="48" viewBox="0 0 48 48" fill="none" xmlns="http://www.w3.org/2000/svg">
<g clip-path="url(#clip0)">
<path d="M29.6055 25.2144C29.4983 24.981 29.2694 24.8323 29.0179 24.8323H25.9642L28.3465 15.671C28.4252 15.3677 28.2873 15.0497 28.0156 14.9063C27.7439 14.7623 27.4111 14.833 27.2168 15.075L18.1168 26.4084C17.9569 26.6071 17.9238 26.8831 18.031 27.1164C18.1383 27.3498 18.3671 27.4984 18.6186 27.4984H21.6724L19.2901 36.6598C19.2114 36.9631 19.3493 37.2811 19.621 37.4244C19.7152 37.4744 19.8173 37.4984 19.918 37.4984C20.1079 37.4984 20.2931 37.4137 20.4199 37.2558L29.5199 25.9224C29.6796 25.7237 29.7128 25.4477 29.6055 25.2144ZM21.3167 34.0417L23.1464 27.0037C23.1985 26.8037 23.1569 26.5904 23.034 26.4258C22.9111 26.2618 22.7207 26.1652 22.5186 26.1652H19.9959L26.3204 18.2885L24.4906 25.3265C24.4386 25.5265 24.4802 25.7398 24.6031 25.9044C24.7259 26.0684 24.9164 26.1652 25.1185 26.1652H27.6412L21.3167 34.0417Z" fill="#C6CBCE"/>
<path d="M27.7186 4.16504H19.9186C19.5598 4.16504 19.2686 4.46371 19.2686 4.83168V7.49832C19.2686 7.86629 19.5598 8.16496 19.9186 8.16496H27.7186C28.0774 8.16496 28.3686 7.86629 28.3686 7.49832V4.83168C28.3686 4.46371 28.0774 4.16504 27.7186 4.16504ZM27.0686 6.83168H20.5686V5.4984H27.0686V6.83168Z" fill="#C6CBCE"/>
<path d="M31.0785 6.83167H16.5587C15.1853 6.83167 14.0686 7.97768 14.0686 9.38573V41.611C14.0686 43.019 15.1866 44.165 16.5587 44.165H31.0785C32.4512 44.165 33.5686 43.019 33.5686 41.611V9.38573C33.5686 7.97768 32.4512 6.83167 31.0785 6.83167ZM32.268 41.611C32.268 42.2844 31.7343 42.8317 31.0778 42.8317H16.5581C15.9016 42.8317 15.3679 42.2844 15.3679 41.611V9.38573C15.3679 8.71237 15.9022 8.16502 16.5581 8.16502H31.0778C31.7343 8.16502 32.268 8.71237 32.268 9.38573V41.611Z" fill="#C6CBCE"/>
</g>
<defs>
<clipPath id="clip0">
<rect width="39" height="40" fill="white" transform="translate(4.3186 4.16504)"/>
</clipPath>
</defs>
</svg>
