<svg width="48" height="48" viewBox="0 0 48 48" fill="none" xmlns="http://www.w3.org/2000/svg">
<g clip-path="url(#clip0)">
<path d="M23.9999 41.5C23.9042 41.5002 23.8096 41.4813 23.7213 41.4446C23.4486 41.3318 23.2708 41.0659 23.2707 40.7708V25.6587L15.743 32.5593C15.4462 32.8315 14.985 32.8116 14.7128 32.5148C14.4406 32.218 14.4605 31.7567 14.7573 31.4845L22.9207 24.0006L14.7543 16.5182C14.4575 16.246 14.4376 15.7848 14.7098 15.488C14.982 15.1912 15.4433 15.1713 15.7401 15.4435L23.2706 22.3426V7.23046C23.2699 6.82777 23.5958 6.50075 23.9985 6.5C24.1926 6.49966 24.3789 6.57677 24.516 6.71423L33.2657 15.4639C33.5503 15.7488 33.55 16.2105 33.2651 16.4951C33.2577 16.5025 33.2501 16.5097 33.2424 16.5168L25.0789 24.0007L33.2453 31.4831C33.5423 31.7551 33.5624 32.2163 33.2904 32.5133C33.2833 32.521 33.2761 32.5286 33.2686 32.536L24.519 41.2856C24.3815 41.4236 24.1945 41.5008 23.9999 41.5ZM24.729 25.6587V39.0107L31.6951 32.0445L24.729 25.6587ZM24.729 8.99058V22.3426L31.6951 15.9568L24.729 8.99058Z" fill="#2196F3"/>
<path d="M23.9999 41.5C23.5972 41.5 23.2707 41.1735 23.2707 40.7708V25.6587L15.743 32.5593C15.4462 32.8315 14.985 32.8116 14.7128 32.5148C14.4406 32.218 14.4605 31.7567 14.7573 31.4845L22.9207 24.0006L14.7543 16.5182C14.4575 16.246 14.4376 15.7848 14.7098 15.488C14.982 15.1912 15.4433 15.1713 15.7401 15.4435L23.2706 22.3426V7.23046C23.2699 6.82777 23.5958 6.50075 23.9985 6.5C24.1926 6.49966 24.3789 6.57677 24.516 6.71423L33.2657 15.4639C33.5503 15.7488 33.55 16.2105 33.2651 16.4951C33.2577 16.5025 33.2501 16.5097 33.2424 16.5168L25.0789 24.0007L33.2453 31.4831C33.5423 31.7551 33.5624 32.2163 33.2904 32.5133C33.2833 32.521 33.2761 32.5286 33.2686 32.536L24.519 41.2856C24.3815 41.4236 24.1945 41.5008 23.9999 41.5ZM24.729 25.6587V39.0107L31.6951 32.0445L24.729 25.6587ZM24.729 8.99058V22.3426L31.6951 15.9568L24.729 8.99058Z" fill="#C6CBCE"/>
</g>
<defs>
<clipPath id="clip0">
<rect width="35" height="35" fill="white" transform="translate(6.5 6.5)"/>
</clipPath>
</defs>
</svg>
