<svg width="48" height="48" viewBox="0 0 48 48" fill="none" xmlns="http://www.w3.org/2000/svg">
<g clip-path="url(#clip0)">
<path d="M14.4842 33.765C14.2815 33.765 14.0788 33.6915 13.9237 33.546C11.2336 30.996 9.75 27.606 9.75 24C9.75 20.394 11.2336 17.004 13.9253 14.4555C14.234 14.163 14.7359 14.163 15.0447 14.4555C15.3534 14.748 15.3534 15.2235 15.0447 15.516C12.6522 17.7825 11.3333 20.7945 11.3333 24C11.3333 27.2055 12.6522 30.2175 15.0447 32.484C15.3534 32.7765 15.3534 33.252 15.0447 33.5445C14.8895 33.6915 14.6868 33.765 14.4842 33.765Z" fill="#C6CBCE"/>
<path d="M11.1275 36.945C10.9248 36.945 10.7222 36.8715 10.567 36.726C6.97758 33.324 5 28.8045 5 24C5 19.1955 6.97758 14.676 10.5686 11.2755C10.8773 10.983 11.3793 10.983 11.688 11.2755C11.9968 11.568 11.9968 12.0435 11.688 12.336C8.39625 15.453 6.58333 19.596 6.58333 24C6.58333 28.404 8.39625 32.547 11.688 35.664C11.9968 35.9565 11.9968 36.432 11.688 36.7245C11.5328 36.8715 11.3302 36.945 11.1275 36.945Z" fill="#C6CBCE"/>
<path d="M36.8726 36.945C36.6699 36.945 36.4672 36.8715 36.3121 36.726C36.0033 36.4335 36.0033 35.958 36.3121 35.6655C39.6038 32.547 41.4167 28.404 41.4167 24C41.4167 19.596 39.6038 15.453 36.3121 12.336C36.0033 12.0435 36.0033 11.568 36.3121 11.2755C36.6208 10.983 37.1227 10.983 37.4315 11.2755C41.0225 14.676 43.0001 19.1955 43.0001 24C43.0001 28.8045 41.0225 33.324 37.4315 36.7245C37.2779 36.8715 37.0752 36.945 36.8726 36.945Z" fill="#C6CBCE"/>
<path d="M33.5158 33.765C33.3132 33.765 33.1105 33.6915 32.9553 33.546C32.6466 33.2535 32.6466 32.778 32.9553 32.4855C35.3477 30.2175 36.6667 27.2055 36.6667 24C36.6667 20.7945 35.3477 17.7825 32.9553 15.516C32.6466 15.2235 32.6466 14.748 32.9553 14.4555C33.2641 14.163 33.766 14.163 34.0747 14.4555C36.7664 17.004 38.25 20.394 38.25 24C38.25 27.606 36.7664 30.996 34.0747 33.5445C33.9212 33.6915 33.7185 33.765 33.5158 33.765Z" fill="#C6CBCE"/>
<path d="M20.1572 35.9999C20.0369 35.9999 19.9166 35.9744 19.8041 35.9219C19.4653 35.7614 19.2943 35.3969 19.3941 35.0504L22.1696 25.4999H16.875C16.5757 25.4999 16.3018 25.3394 16.1672 25.0859C16.0342 24.8324 16.0627 24.5279 16.2416 24.3014L25.7147 12.3014C25.9332 12.0239 26.3243 11.9249 26.6584 12.0599C26.9941 12.1949 27.1888 12.5294 27.1302 12.8714L25.7242 20.9999H31.125C31.4258 20.9999 31.7013 21.1619 31.8359 21.4184C31.9689 21.6749 31.9356 21.9809 31.752 22.2074L20.7842 35.7074C20.6306 35.8964 20.3963 35.9999 20.1572 35.9999ZM18.4567 23.9999H23.2083C23.4553 23.9999 23.6881 24.1094 23.8385 24.2954C23.9873 24.4829 24.0364 24.7244 23.9715 24.9494L21.9923 31.7624L29.5163 22.4999H24.7916C24.5589 22.4999 24.3388 22.4039 24.1884 22.2359C24.038 22.0679 23.9731 21.8459 24.0095 21.6284L25.0434 15.6554L18.4567 23.9999Z" fill="#C6CBCE"/>
</g>
<defs>
<clipPath id="clip0">
<rect width="38" height="36" fill="white" transform="translate(5 6)"/>
</clipPath>
</defs>
</svg>
