<svg width="48" height="48" viewBox="0 0 48 48" fill="none" xmlns="http://www.w3.org/2000/svg">
<g clip-path="url(#clip0)">
<path d="M35.6067 9.58746C33.2651 5.22546 28.793 2.51071 23.9314 2.50005H22.6575C17.5936 2.48572 12.9613 5.41689 10.7092 10.0604L11.9551 10.7054C13.97 6.54387 18.1208 3.91735 22.6575 3.9333H23.9314C28.3002 3.92452 32.3257 6.35611 34.4308 10.2754C36.8311 14.7467 36.6703 20.1998 34.0108 24.5147L23.8264 40.9971C21.9965 44.0684 18.0812 45.0396 15.0813 43.1662C13.1711 41.9733 12.0133 39.8408 12.0321 37.5501V34.0315H10.6322V37.5501C10.6308 41.9393 14.105 45.4986 18.3922 45.5C21.0582 45.5009 23.538 44.1011 24.9603 41.7925L35.1307 25.2815C38.0674 20.5287 38.2497 14.5176 35.6067 9.58746Z" fill="#C6CBCE"/>
<path d="M24.5754 29.9897C23.3377 32.0489 21.1482 33.3065 18.7867 33.3149V34.7481C21.6432 34.7422 24.2925 33.2205 25.7863 30.7279L30.756 22.3505C33.4929 17.7455 32.0655 11.7409 27.5675 8.93874C26.0753 8.0091 24.3622 7.51705 22.6155 7.51642C19.191 7.51355 16.1501 9.75757 15.07 13.0846C14.2753 15.5004 14.8916 18.1686 16.6589 19.9642C17.1164 20.4476 17.368 21.097 17.3588 21.7701V23.9988H18.7587V21.7701C18.7583 20.7248 18.353 19.7223 17.6318 18.9824C16.2424 17.567 15.7592 15.4662 16.3859 13.5647C16.9848 11.7181 18.3389 10.2296 20.0957 9.48714C21.7958 10.1289 23.2257 11.3547 24.1414 12.9556C25.5007 15.3836 25.5007 18.3674 24.1414 20.7955L20.9356 26.5284L22.1535 27.2451L25.3593 21.5121C26.9734 18.6264 26.9628 15.0786 25.3313 12.2031C24.5868 10.8813 23.5394 9.76474 22.2795 8.94967H22.6155C27.1075 8.96821 30.7343 12.7114 30.7162 17.3103C30.7102 18.8257 30.3005 20.3107 29.5311 21.6052L24.5754 29.9897Z" fill="#C6CBCE"/>
</g>
<defs>
<clipPath id="clip0">
<rect width="42" height="43" fill="white" transform="translate(3.05029 2.5)"/>
</clipPath>
</defs>
</svg>
