<svg width="48" height="48" viewBox="0 0 48 48" fill="none" xmlns="http://www.w3.org/2000/svg">
<path d="M24.0503 45.9218C19.7473 45.9218 15.5408 44.6458 11.9629 42.2551C8.38506 39.8644 5.59644 36.4665 3.94972 32.491C2.30301 28.5154 1.87215 24.1409 2.71164 19.9205C3.55113 15.7001 5.62326 11.8234 8.666 8.78068C11.7087 5.73794 15.5854 3.66581 19.8058 2.82632C24.0262 1.98683 28.4008 2.41769 32.3763 4.06441C36.3518 5.71112 39.7498 8.49974 42.1404 12.0776C44.5311 15.6555 45.8071 19.8619 45.8071 24.165C45.8005 29.9333 43.5062 35.4633 39.4274 39.5421C35.3487 43.6209 29.8186 45.9152 24.0503 45.9218ZM24.0503 3.65152C19.9932 3.65152 16.0271 4.85461 12.6536 7.10867C9.28022 9.36272 6.65095 12.5665 5.09833 16.3148C3.54571 20.0632 3.13948 24.1878 3.93099 28.167C4.72251 32.1462 6.67623 35.8014 9.5451 38.6703C12.414 41.5391 16.0691 43.4929 20.0484 44.2844C24.0276 45.0759 28.1522 44.6697 31.9005 43.117C35.6489 41.5644 38.8527 38.9351 41.1067 35.5617C43.3608 32.1883 44.5639 28.2222 44.5639 24.165C44.5576 18.7264 42.3944 13.5124 38.5487 9.66669C34.703 5.82101 29.489 3.65777 24.0503 3.65152Z" fill="#C6CBCE"/>
<path d="M24.0501 41.2211C20.6767 41.2211 17.3791 40.2207 14.5743 38.3466C11.7694 36.4725 9.5833 33.8087 8.29237 30.6921C7.00144 27.5755 6.66367 24.1461 7.32178 20.8375C7.9799 17.529 9.60433 14.4899 11.9897 12.1046C14.375 9.71923 17.4141 8.09479 20.7226 7.43668C24.0312 6.77857 27.4606 7.11634 30.5772 8.40727C33.6938 9.6982 36.3576 11.8843 38.2317 14.6892C40.1059 17.494 41.1062 20.7916 41.1062 24.165C41.1011 28.687 39.3025 33.0223 36.1049 36.2198C32.9074 39.4174 28.5721 41.216 24.0501 41.2211ZM24.0501 8.35282C20.9226 8.35282 17.8653 9.28024 15.2649 11.0178C12.6645 12.7554 10.6377 15.225 9.44092 18.1145C8.2441 21.0039 7.93099 24.1834 8.54118 27.2508C9.15138 30.3182 10.6575 33.1358 12.869 35.3472C15.0805 37.5586 17.8981 39.0646 20.9656 39.6747C24.033 40.2847 27.2124 39.9715 30.1018 38.7746C32.9913 37.5777 35.4608 35.5508 37.1983 32.9503C38.9358 30.3498 39.8631 27.2925 39.8629 24.165C39.8582 19.9727 38.1906 15.9535 35.2262 12.9892C32.2617 10.0248 28.2424 8.35743 24.0501 8.35282Z" fill="#C6CBCE"/>
<path d="M24.9675 32.6607C24.8449 32.6608 24.725 32.6245 24.6229 32.5566C24.5208 32.4887 24.4411 32.3921 24.3937 32.279L21.9041 26.3114L15.9366 23.8212C15.8225 23.7735 15.7252 23.6929 15.6571 23.5896C15.5891 23.4863 15.5535 23.365 15.5547 23.2413C15.556 23.1176 15.5941 22.9971 15.6643 22.8953C15.7344 22.7934 15.8333 22.7147 15.9484 22.6694L30.4533 16.9542C30.5663 16.909 30.69 16.8979 30.8092 16.9223C30.9284 16.9468 31.0378 17.0057 31.1239 17.0917C31.2099 17.1778 31.2688 17.2872 31.2932 17.4064C31.3177 17.5256 31.3066 17.6493 31.2614 17.7623L25.5456 32.2672C25.5002 32.3823 25.4214 32.4813 25.3194 32.5514C25.2174 32.6215 25.0968 32.6595 24.9731 32.6607H24.9675ZM17.83 23.2649L22.6165 25.2628C22.7677 25.3258 22.8879 25.446 22.9509 25.5972L24.9488 30.3837L29.5774 18.635L17.83 23.2649Z" fill="#C6CBCE"/>
</svg>
