<svg width="48" height="48" viewBox="0 0 48 48" fill="none" xmlns="http://www.w3.org/2000/svg">
<g clip-path="url(#clip0)">
<path d="M32.1936 3.56628H16.4436C15.5737 3.56726 14.7396 3.91328 14.1245 4.52842C13.5093 5.14356 13.1633 5.97759 13.1624 6.84753V40.9725C13.1633 41.8425 13.5093 42.6765 14.1245 43.2916C14.7396 43.9068 15.5737 44.2528 16.4436 44.2538H32.1936C33.0635 44.2528 33.8976 43.9068 34.5127 43.2916C35.1279 42.6765 35.4739 41.8425 35.4749 40.9725V6.84753C35.4739 5.97759 35.1279 5.14356 34.5127 4.52842C33.8976 3.91328 33.0635 3.56726 32.1936 3.56628ZM28.7681 4.87878L28.3744 6.84753H20.2629L19.8691 4.87878H28.7681ZM34.1624 40.9725C34.1618 41.4945 33.9542 41.9949 33.5851 42.364C33.216 42.7331 32.7156 42.9407 32.1936 42.9413H16.4436C15.9216 42.9407 15.4212 42.7331 15.0521 42.364C14.683 41.9949 14.4754 41.4945 14.4749 40.9725V6.84753C14.4754 6.32557 14.683 5.82515 15.0521 5.45607C15.4212 5.08698 15.9216 4.87937 16.4436 4.87878H18.5306L19.0813 7.63249C19.1111 7.78126 19.1915 7.91512 19.3088 8.0113C19.4261 8.10748 19.5731 8.16004 19.7249 8.16003H28.9124C29.0641 8.16004 29.2111 8.10748 29.3284 8.0113C29.4458 7.91512 29.5261 7.78126 29.5559 7.63249L30.1066 4.87878H32.1936C32.7156 4.87937 33.216 5.08698 33.5851 5.45607C33.9542 5.82515 34.1618 6.32557 34.1624 6.84753V40.9725Z" fill="#C6CBCE"/>
<path d="M20.3811 40.3163H16.4436C16.2696 40.3163 16.1026 40.3854 15.9796 40.5085C15.8565 40.6316 15.7874 40.7985 15.7874 40.9725C15.7874 41.1466 15.8565 41.3135 15.9796 41.4366C16.1026 41.5596 16.2696 41.6288 16.4436 41.6288H20.3811C20.5552 41.6288 20.7221 41.5596 20.8451 41.4366C20.9682 41.3135 21.0374 41.1466 21.0374 40.9725C21.0374 40.7985 20.9682 40.6316 20.8451 40.5085C20.7221 40.3854 20.5552 40.3163 20.3811 40.3163Z" fill="#C6CBCE"/>
<path d="M23.0061 40.3163H22.3499C22.1758 40.3163 22.0089 40.3854 21.8858 40.5085C21.7627 40.6316 21.6936 40.7985 21.6936 40.9725C21.6936 41.1466 21.7627 41.3135 21.8858 41.4366C22.0089 41.5596 22.1758 41.6288 22.3499 41.6288H23.0061C23.1802 41.6288 23.3471 41.5596 23.4701 41.4366C23.5932 41.3135 23.6624 41.1466 23.6624 40.9725C23.6624 40.7985 23.5932 40.6316 23.4701 40.5085C23.3471 40.3854 23.1802 40.3163 23.0061 40.3163Z" fill="#C6CBCE"/>
</g>
<defs>
<clipPath id="clip0">
<rect width="42" height="42" fill="white" transform="translate(3.3186 2.91003)"/>
</clipPath>
</defs>
</svg>
