<svg width="48" height="48" viewBox="0 0 48 48" fill="none" xmlns="http://www.w3.org/2000/svg">
<g clip-path="url(#clip0)">
<path d="M17.0132 30.4513H31.6242C31.9959 30.4513 32.2971 30.1566 32.2971 29.7929C32.2971 29.4293 31.9959 29.1346 31.6242 29.1346H17.0132C16.6414 29.1346 16.3402 29.4293 16.3402 29.7929C16.3402 30.1566 16.6415 30.4513 17.0132 30.4513Z" fill="#C6CBCE"/>
<path d="M36.4169 32.0859H12.2203C11.8486 32.0859 11.5474 32.3806 11.5474 32.7443C11.5474 33.1079 11.8486 33.4026 12.2203 33.4026H36.4169C36.7887 33.4026 37.0899 33.1079 37.0899 32.7443C37.0899 32.3806 36.7887 32.0859 36.4169 32.0859Z" fill="#C6CBCE"/>
<path d="M5.53519 6.06445C5.16344 6.06445 4.86222 6.35913 4.86222 6.72279C4.86222 7.08646 5.16344 7.38113 5.53519 7.38113H6.48892C6.86067 7.38113 7.16189 7.08646 7.16189 6.72279C7.16189 6.35913 6.86067 6.06445 6.48892 6.06445H5.53519Z" fill="#C6CBCE"/>
<path d="M9.30914 6.06445C8.93739 6.06445 8.63617 6.35913 8.63617 6.72279C8.63617 7.08646 8.93739 7.38113 9.30914 7.38113H10.2629C10.6346 7.38113 10.9358 7.08646 10.9358 6.72279C10.9358 6.35913 10.6346 6.06445 10.2629 6.06445H9.30914Z" fill="#C6CBCE"/>
<path d="M13.0828 6.06445C12.7111 6.06445 12.4099 6.35913 12.4099 6.72279C12.4099 7.08646 12.7111 7.38113 13.0828 7.38113H14.0366C14.4083 7.38113 14.7095 7.08646 14.7095 6.72279C14.7095 6.35913 14.4083 6.06445 14.0366 6.06445H13.0828Z" fill="#C6CBCE"/>
<path d="M45.0422 3.67267H35.477C35.1053 3.67267 34.8041 3.96734 34.8041 4.33101C34.8041 4.69468 35.1053 4.98935 35.477 4.98935H45.0422C45.5552 4.98935 45.9727 5.3977 45.9727 5.89961V8.45626H2.66454V5.8997C2.66454 5.39778 3.08196 4.98944 3.59504 4.98944H32.7828C33.1546 4.98944 33.4558 4.69476 33.4558 4.3311C33.4558 3.96743 33.1546 3.67276 32.7828 3.67276H3.59504C2.33981 3.67267 1.3186 4.67168 1.3186 5.8997V41.781C1.3186 43.185 2.48401 44.3274 3.91654 44.3274H28.0505C28.4222 44.3274 28.7235 44.0327 28.7235 43.669C28.7235 43.3054 28.4222 43.0107 28.0505 43.0107H3.91654C3.22625 43.0107 2.66454 42.4591 2.66454 41.781V36.6197H45.9727V41.781C45.9727 42.4591 45.411 43.0107 44.7208 43.0107H30.7376C30.3659 43.0107 30.0646 43.3054 30.0646 43.669C30.0646 44.0327 30.3659 44.3274 30.7376 44.3274H44.7208C46.1532 44.3274 47.3186 43.185 47.3186 41.781V5.8997C47.3186 4.67168 46.2974 3.67267 45.0422 3.67267ZM2.66454 35.3029V9.77302H45.9727V35.303H2.66454V35.3029Z" fill="#C6CBCE"/>
<path d="M25.9728 38.0126L23.707 40.2291L22.7147 39.2919C22.4474 39.0394 22.0213 39.0468 21.7632 39.3084C21.5051 39.5699 21.5125 39.9867 21.78 40.2392L23.248 41.6256C23.3784 41.7489 23.5469 41.8103 23.7154 41.8103C23.8877 41.8103 24.0599 41.746 24.1913 41.6175L26.9246 38.9435C27.1874 38.6864 27.1874 38.2696 26.9246 38.0125C26.6616 37.7556 26.2356 37.7555 25.9728 38.0126Z" fill="#C6CBCE"/>
<path d="M22.6197 17.6285V16.7674C22.6197 16.4037 22.3185 16.1091 21.9467 16.1091C21.575 16.1091 21.2738 16.4037 21.2738 16.7674V17.6285C21.2738 17.9922 21.575 18.2869 21.9467 18.2869C22.3185 18.2869 22.6197 17.9921 22.6197 17.6285Z" fill="#C6CBCE"/>
<path d="M27.3634 17.6285V16.7674C27.3634 16.4037 27.0622 16.1091 26.6905 16.1091C26.3187 16.1091 26.0175 16.4037 26.0175 16.7674V17.6285C26.0175 17.9922 26.3187 18.2869 26.6905 18.2869C27.0622 18.2869 27.3634 17.9921 27.3634 17.6285Z" fill="#C6CBCE"/>
<path d="M20.2348 20.7662C20.2348 22.9692 22.0668 24.7614 24.3187 24.7614C26.5707 24.7614 28.4027 22.9692 28.4027 20.7662C28.4027 20.4025 28.1014 20.1078 27.7297 20.1078H20.9078C20.5361 20.1078 20.2348 20.4025 20.2348 20.7662ZM26.973 21.4245C26.6724 22.5843 25.5963 23.4447 24.3187 23.4447C23.0412 23.4447 21.9651 22.5842 21.6644 21.4244H26.973V21.4245Z" fill="#C6CBCE"/>
<path d="M18.5405 23.9582C18.8531 23.7615 18.9437 23.3541 18.7427 23.0484C18.0558 22.0032 17.6927 20.7931 17.6927 19.5489C17.6927 15.9747 20.6651 13.0668 24.3187 13.0668C27.9723 13.0668 30.9448 15.9747 30.9448 19.5489C30.9448 23.123 27.9723 26.0309 24.3187 26.0309C22.9083 26.0309 21.5611 25.6019 20.4224 24.7905C20.1223 24.5763 19.7011 24.6409 19.4822 24.935C19.2634 25.2288 19.3294 25.6406 19.6299 25.8547C21.0002 26.8314 22.6216 27.3476 24.3187 27.3476C28.7145 27.3476 32.2907 23.8492 32.2907 19.5489C32.2907 15.2487 28.7146 11.7502 24.3187 11.7502C19.9229 11.7502 16.3467 15.2487 16.3467 19.5489C16.3467 21.0463 16.7837 22.5025 17.6106 23.7605C17.8116 24.0662 18.2278 24.1547 18.5405 23.9582Z" fill="#C6CBCE"/>
</g>
<defs>
<clipPath id="clip0">
<rect width="46" height="45" fill="white" transform="translate(1.3186 1.5)"/>
</clipPath>
</defs>
</svg>
