<svg width="48" height="48" viewBox="0 0 48 48" fill="none" xmlns="http://www.w3.org/2000/svg">
<g clip-path="url(#clip0)">
<path d="M22.2123 36.2226C22.0329 36.0556 21.885 35.8606 21.7731 35.6428L20.7515 33.657C20.5956 33.354 20.2237 33.2348 19.9206 33.3907C19.6177 33.5466 19.4984 33.9185 19.6543 34.2215L20.6758 36.2073C20.8534 36.5524 21.0875 36.8614 21.3717 37.126L25.3663 40.8418V44.3831C25.3663 44.7239 25.6424 45.0001 25.9832 45.0001C26.324 45.0001 26.6002 44.7239 26.6002 44.3831V40.5732C26.6002 40.4018 26.5289 40.2382 26.4034 40.1215L22.2123 36.2226Z" fill="#C6CBCE"/>
<path d="M19.5436 31.3091L16.8041 25.984C16.8023 25.9806 16.8005 25.9772 16.7987 25.9738C16.5717 25.5519 16.6735 25.0224 17.0408 24.7148C17.4328 24.3865 18.0104 24.4017 18.3845 24.7504L22.0039 28.1229C22.1836 28.2903 22.4453 28.3352 22.6706 28.2373C22.8957 28.1394 23.0414 27.9171 23.0414 27.6716V19.7495C23.0414 19.4087 22.7652 19.1326 22.4244 19.1326C22.0837 19.1326 21.8075 19.4087 21.8075 19.7495V26.2534L19.2257 23.8476C18.3969 23.0754 17.117 23.0415 16.2486 23.7688C15.4363 24.4491 15.2101 25.6191 15.7093 26.553L18.4464 31.8736C18.5559 32.0863 18.7718 32.2084 18.9956 32.2084C19.0906 32.2084 19.187 32.1863 19.2773 32.1399C19.5801 31.984 19.6994 31.6121 19.5436 31.3091Z" fill="#C6CBCE"/>
<path d="M36.8287 17.818C36.002 17.818 35.2619 18.1951 34.7708 18.7861C34.2798 18.1951 33.5397 17.818 32.7131 17.818C31.8865 17.818 31.1464 18.1951 30.6553 18.7861C30.1643 18.1951 29.4241 17.818 28.5975 17.818C28.0672 17.818 27.5729 17.9738 27.1567 18.2411V13.3312C27.1567 11.8564 25.9568 10.6565 24.4819 10.6565C23.0071 10.6565 21.8073 11.8564 21.8073 13.3312V17.1203C21.8073 17.4611 22.0835 17.7372 22.4242 17.7372C22.7649 17.7372 23.0411 17.4611 23.0411 17.1203V13.3312C23.0411 12.5368 23.6875 11.8904 24.482 11.8904C25.2764 11.8904 25.9228 12.5367 25.9228 13.3312V24.2891C25.9228 24.6299 26.1989 24.906 26.5397 24.906C26.8805 24.906 27.1567 24.6299 27.1567 24.2891V20.4927C27.1567 19.6983 27.803 19.0519 28.5975 19.0519C29.3921 19.0519 30.0384 19.6982 30.0384 20.4927V24.2856C30.0384 24.6264 30.3145 24.9026 30.6553 24.9026C30.9961 24.9026 31.2722 24.6264 31.2722 24.2856V20.4927C31.2722 19.6983 31.9185 19.0519 32.7131 19.0519C33.5076 19.0519 34.1539 19.6982 34.1539 20.4927V24.2856C34.1539 24.6264 34.4301 24.9026 34.7708 24.9026C35.1116 24.9026 35.3878 24.6264 35.3878 24.2856V20.4927C35.3878 19.6983 36.0342 19.0519 36.8287 19.0519C37.6232 19.0519 38.2695 19.6982 38.2695 20.4927V37.0234C38.2695 37.3375 38.186 37.6472 38.028 37.9187L37.0373 39.6212C36.9825 39.7154 36.9536 39.8225 36.9536 39.9314V44.2996C36.9536 44.6404 37.2297 44.9166 37.5705 44.9166C37.9113 44.9166 38.1875 44.6404 38.1875 44.2996V40.0979L39.0944 38.5393C39.3619 38.0795 39.5033 37.5553 39.5033 37.0234V20.4927C39.5034 19.0179 38.3036 17.818 36.8287 17.818Z" fill="#C6CBCE"/>
<path d="M29.5746 11.6789C29.5746 12.8141 29.2095 13.8896 28.5184 14.7893C28.311 15.0595 28.3617 15.4468 28.632 15.6544C28.744 15.7405 28.8762 15.7821 29.0073 15.7821C29.1925 15.7821 29.3757 15.6991 29.4971 15.5409C30.3551 14.4238 30.8085 13.0884 30.8085 11.679C30.8085 10.7046 30.5928 9.76875 30.1672 8.89747C30.0178 8.59122 29.6484 8.46413 29.3422 8.61384C29.036 8.7633 28.909 9.13281 29.0586 9.43889C29.401 10.1401 29.5746 10.8937 29.5746 11.6789Z" fill="#C6CBCE"/>
<path d="M19.4718 15.5988C19.5935 15.7536 19.7744 15.8343 19.9571 15.8343C20.0906 15.8343 20.225 15.7912 20.3381 15.7023C20.606 15.4916 20.6523 15.1039 20.4416 14.836C19.7266 13.927 19.3487 12.8353 19.3487 11.6789C19.3487 8.85954 21.6424 6.56585 24.4617 6.56585C25.596 6.56585 26.6709 6.93058 27.5701 7.62048C27.8403 7.82786 28.2278 7.77677 28.4352 7.50655C28.6425 7.23625 28.5915 6.84898 28.3212 6.64152C27.2046 5.78472 25.87 5.33197 24.4617 5.33197C20.9621 5.33197 18.1149 8.17918 18.1149 11.6789C18.1149 13.1147 18.5841 14.4701 19.4718 15.5988Z" fill="#C6CBCE"/>
<path d="M18.3739 20.2433C18.4824 20.3206 18.6073 20.3578 18.7312 20.3578C18.924 20.3578 19.114 20.2676 19.2343 20.0986C19.432 19.8211 19.3672 19.4359 19.0896 19.2383C16.647 17.499 15.1887 14.6732 15.1887 11.679C15.1887 8.68487 16.647 5.85888 19.0896 4.11969C19.3672 3.9221 19.432 3.53689 19.2343 3.25927C19.0367 2.98173 18.6515 2.91691 18.374 3.11457C15.6068 5.08483 13.9548 8.28649 13.9548 11.679C13.9547 15.0715 15.6067 18.2732 18.3739 20.2433Z" fill="#C6CBCE"/>
<path d="M29.8337 4.11951C32.2763 5.85878 33.7347 8.68468 33.7347 11.6788C33.7347 12.8744 33.5105 14.0379 33.0686 15.1369C32.9414 15.4531 33.0945 15.8124 33.4107 15.9395C33.4862 15.9698 33.564 15.9842 33.6407 15.9842C33.8851 15.9842 34.1165 15.838 34.2133 15.5974C34.7145 14.3513 34.9686 13.0329 34.9686 11.6788C34.9686 8.28631 33.3166 5.08464 30.5494 3.11439C30.2716 2.91672 29.8865 2.98154 29.689 3.25908C29.4914 3.5367 29.5561 3.92192 29.8337 4.11951Z" fill="#C6CBCE"/>
<path d="M10.3018 7.81037C10.4233 7.94091 10.5881 8.00697 10.7534 8.00697C10.904 8.00697 11.0548 7.95218 11.1737 7.84155C11.4231 7.60941 11.4371 7.21901 11.2049 6.96961L9.86316 5.52844C9.63087 5.27903 9.24055 5.26521 8.99123 5.49726C8.74182 5.7294 8.72783 6.11979 8.96005 6.3692L10.3018 7.81037Z" fill="#C6CBCE"/>
<path d="M10.3017 13.9265L8.96003 15.3676C8.72789 15.6169 8.74179 16.0073 8.99112 16.2395C9.10998 16.3502 9.26085 16.405 9.41138 16.405C9.57664 16.405 9.74148 16.3389 9.86306 16.2084L11.2048 14.7673C11.4369 14.5179 11.423 14.1275 11.1737 13.8953C10.9244 13.6634 10.534 13.6772 10.3017 13.9265Z" fill="#C6CBCE"/>
<path d="M10.7532 10.0031H9.1134C8.77268 10.0031 8.49646 10.2792 8.49646 10.62C8.49646 10.9608 8.77268 11.2369 9.1134 11.2369H10.7533C11.094 11.2369 11.3702 10.9608 11.3702 10.62C11.3702 10.2792 11.0939 10.0031 10.7532 10.0031Z" fill="#C6CBCE"/>
</g>
<defs>
<clipPath id="clip0">
<rect width="42" height="42" fill="white" transform="translate(3 3)"/>
</clipPath>
</defs>
</svg>
